<?xml version="1.0" encoding="iso-8859-1"?>
<!-- Uploaded to: SVG Repo, www.svgrepo.com, Generator: SVG Repo Mixer Tools -->
<svg height="800px" width="800px" version="1.1" id="Layer_1" xmlns="http://www.w3.org/2000/svg" xmlns:xlink="http://www.w3.org/1999/xlink" 
	 viewBox="0 0 392.587 392.587" xml:space="preserve">
<path style="fill:#194F82;" d="M384.811,7.663c-27.604-27.539-103.758,23.596-162.909,82.683
	c-34.069,34.069-62.255,70.659-77.64,100.59l-31.612,31.612c-24.954-5.495-51.523,2.392-69.689,20.299
	c-13.576,13.576-13.188,32.388-12.8,52.299c0.517,26.182,1.099,53.333-26.505,78.222c-3.297,2.909-4.461,7.628-2.909,11.83
	c2.78,6.982,8.663,7.693,15.063,7.305l0,0c22.109,0,96.97-3.103,134.077-43.249c18.101-19.523,24.566-45.446,19.717-68.978l32-32
	c29.931-15.386,66.457-43.507,100.59-77.576C372.011,98.685,409.765,33.263,384.811,7.663z M133.789,334.386
	c-23.984,25.988-70.723,33.358-98.392,35.491c17.455-26.246,16.937-53.85,16.549-75.119c-0.388-18.23-0.259-29.737,6.4-36.396
	c20.234-20.558,55.273-21.204,75.701,0C154.411,278.725,154.347,312.147,133.789,334.386z M160.941,257.909
	c-3.103-5.301-6.853-10.408-11.442-14.998c-4.655-4.655-9.632-8.404-14.804-11.507l25.6-25.6l26.44,26.376L160.941,257.909z
	 M286.678,155.121c-27.216,27.216-55.79,50.23-80.743,65.422l-34.069-34.069c11.055-18.101,26.182-38.012,44.024-58.053h45.899
	c6.012,0,10.925-4.848,10.925-10.925c0-6.012-4.848-10.925-10.925-10.925h-25.341c0.323-0.323,0.517-0.517,0.84-0.84
	c4.267-4.267,8.404-8.339,12.606-12.218h54.238c6.012,0,10.925-4.848,10.925-10.925c0-6.077-4.848-10.925-10.925-10.925h-29.608
	c51.846-42.99,88.889-54.691,94.836-48.679C377.959,46.321,334.322,106.636,286.678,155.121z"/>
<path style="fill:#56ACE0;" d="M369.361,23.113c-6.012-6.012-42.99,5.689-94.836,48.679h29.608c6.012,0,10.925,4.848,10.925,10.925
	c0,6.077-4.848,10.925-10.925,10.925h-54.238c-4.202,3.879-8.339,7.952-12.606,12.218c-0.323,0.323-0.517,0.517-0.84,0.84h25.341
	c6.012,0,10.925,4.848,10.925,10.925c0,6.012-4.848,10.925-10.925,10.925H215.89c-17.842,20.04-32.97,39.952-44.024,58.053
	l34.069,34.069c24.954-15.192,53.527-38.141,80.743-65.422C334.322,106.636,377.959,46.321,369.361,23.113z"/>
<path style="fill:#FFFFFF;" d="M160.941,257.909l25.729-25.729l-26.44-26.376l-25.6,25.6c5.172,3.168,10.214,6.853,14.804,11.507
	C154.023,247.436,157.838,252.543,160.941,257.909z"/>
<path style="fill:#FFC10D;" d="M134.112,258.362c-20.493-21.204-55.467-20.558-75.701,0c-6.659,6.659-6.788,18.166-6.4,36.396
	c0.453,21.269,1.034,48.808-16.549,75.119c27.669-2.069,74.408-9.503,98.392-35.491
	C154.347,312.147,154.411,278.725,134.112,258.362z"/>
<path style="fill:#194F82;" d="M105.733,267.477c-4.267,4.267-4.267,11.119,0,15.451c8.145,8.145,8.016,21.075-0.323,30.061
	c-4.461,4.848-11.442,8.727-20.687,11.572c-5.818,1.745-9.051,7.887-7.24,13.576c1.552,5.301,8.145,8.986,13.576,7.24
	c12.994-3.943,23.208-9.891,30.384-17.648c16.162-17.455,15.968-43.96-0.323-60.251C116.852,263.21,109.999,263.21,105.733,267.477z
	"/>
</svg>