<?xml version="1.0" encoding="iso-8859-1"?>
<!-- Uploaded to: SVG Repo, www.svgrepo.com, Generator: SVG Repo Mixer Tools -->
<svg height="800px" width="800px" version="1.1" id="Layer_1" xmlns="http://www.w3.org/2000/svg" xmlns:xlink="http://www.w3.org/1999/xlink" 
	 viewBox="0 0 512 512" xml:space="preserve">
<g>
	<path style="fill:#25B99A;" d="M26.069,405.333L26.069,405.333c-11.947-11.947-11.947-30.72,0-42.667l21.333-21.333l21.333,21.333
		c11.947,11.947,11.947,30.72,0,42.667l0,0C56.789,417.28,37.162,417.28,26.069,405.333"/>
	<path style="fill:#25B99A;" d="M280.362,58.88c17.067,17.067-21.333,81.92-84.48,145.067s-128,101.547-145.067,84.48
		c-17.067-17.067,21.333-81.92,84.48-145.067S263.296,42.667,280.362,58.88"/>
</g>
<path style="fill:#B9BDC5;" d="M195.882,203.947c-63.147,63.147-128,101.547-145.067,84.48L261.589,499.2
	c17.067,17.067,81.92-21.333,145.067-84.48s101.547-128,84.48-145.067L280.362,58.88C296.576,75.947,259.029,140.8,195.882,203.947"
	/>
<g>
	<path style="fill:#556080;" d="M313.642,220.16l90.453,90.453c3.413,3.413,9.387,3.413,11.947,0
		c32.427-34.987,46.933-69.12,34.987-80.213L340.096,120.32c10.24,10.24-0.853,40.107-28.16,71.68
		C305.962,200.533,305.962,212.48,313.642,220.16"/>
	<path style="fill:#556080;" d="M155.776,343.04c-21.333,11.093-37.547,13.653-44.373,6.827l110.933,110.08
		c6.827,6.827,20.48,1.707,40.96-10.24c5.12-2.56,5.973-9.387,1.707-13.653l-89.6-89.6
		C170.282,341.333,162.602,339.627,155.776,343.04"/>
</g>
<path style="fill:#E8EDEE;" d="M342.656,470.187c20.48-14.507,41.813-33.28,64-55.467c2.56-2.56,4.267-4.267,6.827-6.827
	L202.709,197.12c-2.56,2.56-4.267,4.267-6.827,6.827c-22.187,22.187-43.52,40.96-64,55.467L342.656,470.187z"/>
<path style="fill:#6C797A;" d="M273.536,256c0,18.773-15.36,34.133-34.133,34.133s-34.133-15.36-34.133-34.133
	s15.36-34.133,34.133-34.133S273.536,237.227,273.536,256"/>
<path style="fill:#556080;" d="M183.936,0c-34.987,0-64,29.013-64,64v95.573c5.12-5.12,10.24-11.093,15.36-16.213
	c0.853-0.853,0.853-0.853,1.707-1.707V64c0-25.6,21.333-46.933,46.933-46.933S230.869,38.4,230.869,64v192h17.067V64
	C247.936,29.013,218.922,0,183.936,0"/>
<path d="M47.402,422.4c-10.24,0-19.627-3.413-27.307-11.093l0,0c-15.36-15.36-15.36-39.253,0-54.613l21.333-21.333
	c3.413-3.413,8.533-3.413,11.947,0l21.333,21.333C81.536,363.52,85.802,373.76,85.802,384c0,10.24-4.267,20.48-11.093,27.307
	C67.029,418.987,56.789,422.4,47.402,422.4z M32.042,399.36c8.533,8.533,22.187,8.533,30.72,0c3.413-4.267,5.973-9.387,5.973-15.36
	c0-5.973-2.56-11.093-5.973-15.36l-15.36-15.36l-15.36,15.36C23.509,377.173,23.509,390.827,32.042,399.36L32.042,399.36z"/>
<path d="M61.909,300.373c-6.827,0-12.8-1.707-17.067-5.973c-23.893-23.893,24.747-97.28,84.48-157.013s133.12-108.373,157.013-84.48
	l0,0c23.893,23.893-24.747,97.28-84.48,157.013C152.362,259.413,94.336,300.373,61.909,300.373z M268.416,63.147
	c-17.067,0-66.56,24.747-127.147,86.187c-69.973,70.827-92.16,124.587-84.48,133.12c8.533,8.533,62.293-14.507,133.12-84.48
	c69.973-70.827,92.16-124.587,84.48-133.12C273.536,64,270.976,63.147,268.416,63.147z"/>
<path d="M273.536,512c-7.68,0-12.8-2.56-17.067-6.827L44.842,294.4l11.947-11.947c8.533,8.533,62.293-14.507,133.12-84.48
	c69.973-70.827,92.16-124.587,84.48-133.12l11.947-11.947l210.773,211.627c11.093,11.093,7.68,33.28-11.093,64.853
	c-16.213,28.16-42.667,60.587-73.387,91.307c-30.72,30.72-64,57.173-91.307,73.387C301.696,506.027,285.482,512,273.536,512z
	 M73.856,299.52l194.56,194.56c3.413,3.413,17.92,2.56,44.373-13.653c26.453-15.36,58.027-40.96,87.893-70.827
	c69.973-69.973,93.013-124.587,84.48-133.12L290.602,81.92c-7.68,33.28-45.227,84.48-88.747,128l0,0
	c-30.72,30.72-64,57.173-91.307,73.387C96.042,291.84,84.096,296.96,73.856,299.52z"/>
<path d="M247.936,256h-17.067V64c0-25.6-21.333-46.933-46.933-46.933S137.002,38.4,137.002,64v87.04h-17.067V64
	c0-34.987,29.013-64,64-64s64,29.013,64,64V256z"/>
<path d="M239.402,298.667c-11.093,0-22.187-4.267-29.867-12.8c-16.213-17.067-16.213-43.52,0-60.587l11.947,11.947
	c-10.24,10.24-10.24,26.453,0,35.84c10.24,10.24,26.453,10.24,35.84,0c5.12-5.12,7.68-11.093,7.68-17.92s-2.56-13.653-7.68-17.92
	l11.947-11.947c7.68,7.68,12.8,18.773,12.8,29.867c0,11.093-4.267,22.187-12.8,29.867
	C261.589,294.4,250.496,298.667,239.402,298.667z"/>
<path d="M410.069,321.707c-4.267,0-8.533-1.707-11.947-5.12l-90.453-90.453c-10.24-10.24-11.093-27.307-1.707-39.253
	c29.013-33.28,32.427-56.32,28.16-60.587l11.947-11.947l110.933,110.08c17.92,17.92-4.267,58.88-34.987,92.16
	C419.456,320,415.189,321.707,410.069,321.707L410.069,321.707z M351.189,143.36c-4.267,17.067-17.92,37.547-32.427,54.613
	c-4.267,5.12-4.267,11.947,0,16.213l91.307,90.453c33.28-35.84,40.96-63.147,35.84-68.267L351.189,143.36z"/>
<path d="M230.869,471.04c-5.12,0-10.24-1.707-14.507-5.973l-110.933-110.08l0,0l11.947-11.947l0,0
	c2.56,2.56,11.947,3.413,34.133-7.68l0,0c10.24-5.12,22.187-3.413,29.867,4.267l89.6,89.6c3.413,3.413,5.973,9.387,5.12,14.507
	c-0.853,5.12-4.267,10.24-8.533,12.8C255.616,463.36,241.962,471.04,230.869,471.04z M134.442,360.96l93.867,93.013
	c2.56,2.56,12.8-1.707,30.72-11.947l-89.6-89.6c-2.56-2.56-6.827-3.413-10.24-1.707C149.802,355.84,142.122,359.253,134.442,360.96z
	"/>
</svg>