<?xml version="1.0" encoding="iso-8859-1"?>
<!-- Uploaded to: SVG Repo, www.svgrepo.com, Generator: SVG Repo Mixer Tools -->
<svg height="800px" width="800px" version="1.1" id="Layer_1" xmlns="http://www.w3.org/2000/svg" xmlns:xlink="http://www.w3.org/1999/xlink" 
	 viewBox="0 0 512.001 512.001" xml:space="preserve">
<path style="fill:#E9E9E9;" d="M80.683,431.316c107.346,107.346,280.27,107.615,387.934,0.587c0.785-0.78,1.564-1.564,2.336-2.351
	c57.912-58.948,54.037-154.141-8.406-208.266c-37.55-32.548-72.909-46.297-99.222-72.611s-40.063-61.674-72.611-99.222
	C236.59-12.988,141.397-16.863,82.449,41.048c-0.787,0.772-1.571,1.552-2.351,2.336C-26.93,151.049-26.663,323.971,80.683,431.316
	L80.683,431.316z"/>
<path style="fill:#D4D4D4;" d="M80.683,431.316c107.346,107.346,280.27,107.615,387.934,0.587c0.785-0.78,1.564-1.564,2.336-2.351
	c57.912-58.948,54.037-154.141-8.406-208.266c-37.55-32.548-72.909-46.297-99.222-72.611
	C363.325,148.676,80.683,431.316,80.683,431.316L80.683,431.316z"/>
<circle style="fill:#D1393C;" cx="155.726" cy="356.275" r="39.157"/>
<path style="fill:#BC2029;" d="M183.421,328.58c15.293,15.293,15.293,40.087,0,55.381c-15.293,15.293-40.087,15.293-55.381,0
	L183.421,328.58z"/>
<circle style="fill:#80CDD8;" cx="285.351" cy="401.62" r="39.157"/>
<circle style="fill:#3A7484;" cx="401.619" cy="328.56" r="39.157"/>
<circle style="fill:#E68D2C;" cx="183.441" cy="110.381" r="39.157"/>
<circle style="fill:#E06B34;" cx="110.381" cy="226.65" r="39.157"/>
<path style="fill:#EEBA7D;" d="M281.443,270.266l-39.717-39.717c-14.602-2.31-30.068,2.159-41.322,13.412
	c-27.168,27.168-12.949,48.078-47.048,94.625c0,0,89.828-2.154,114.674-27C279.284,300.333,283.753,284.868,281.443,270.266z"/>
<path style="fill:#A8EAEF;" d="M281.646,271.784c16.948-4.896,57.356-36.805,57.356-36.805
	c65.532-65.532,192.344-210.636,170.5-232.48s-166.957,104.96-232.489,170.493c0,0-31.9,40.417-36.796,57.365L281.646,271.784z"/>
<path style="fill:#E68D2C;" d="M281.443,270.266l-19.858-19.858l-86.947,86.947c28.162-2.283,76.247-8.622,93.392-25.767
	C279.284,300.333,283.753,284.868,281.443,270.266z"/>
<path style="fill:#80CDD8;" d="M339.001,234.979c65.533-65.532,192.345-210.636,170.502-232.48
	c-0.001-0.001-0.003-0.002-0.004-0.004L260.926,251.066l20.718,20.718C298.593,266.889,339.001,234.979,339.001,234.979z"/>
<path style="fill:#EEBA7D;" d="M277.013,172.991c0,0-2.936,3.721-7.161,9.374l59.778,59.778c5.652-4.226,9.372-7.164,9.372-7.164
	c2.645-2.645,5.392-5.422,8.222-8.313l-61.897-61.897C282.435,167.6,279.658,170.345,277.013,172.991z"/>
<path style="fill:#E68D2C;" d="M339.001,234.979c2.645-2.645,5.392-5.422,8.222-8.313l-30.949-30.949l-16.535,16.535l29.89,29.89
	C335.281,237.916,339.001,234.979,339.001,234.979z"/>
</svg>